<?xml version="1.0" encoding="UTF-8"?>
<svg version="1.1" xmlns="http://www.w3.org/2000/svg" width="512" height="512">
<path d="M0 0 C1.5631897 0.00785522 1.5631897 0.00785522 3.15795898 0.01586914 C4.28266602 0.0190918 5.40737305 0.02231445 6.56616211 0.02563477 C7.75016602 0.03401367 8.93416992 0.04239258 10.15405273 0.05102539 C11.34192383 0.05553711 12.52979492 0.06004883 13.75366211 0.06469727 C16.69967499 0.07652864 19.64558954 0.09301252 22.59155273 0.11352539 C22.59155273 0.77352539 22.59155273 1.43352539 22.59155273 2.11352539 C25.23155273 2.11352539 27.87155273 2.11352539 30.59155273 2.11352539 C31.08655273 3.59852539 31.08655273 3.59852539 31.59155273 5.11352539 C33.24155273 5.11352539 34.89155273 5.11352539 36.59155273 5.11352539 C36.59155273 5.77352539 36.59155273 6.43352539 36.59155273 7.11352539 C38.24155273 7.44352539 39.89155273 7.77352539 41.59155273 8.11352539 C41.59155273 8.77352539 41.59155273 9.43352539 41.59155273 10.11352539 C42.58155273 10.11352539 43.57155273 10.11352539 44.59155273 10.11352539 C44.59155273 10.77352539 44.59155273 11.43352539 44.59155273 12.11352539 C45.25155273 12.11352539 45.91155273 12.11352539 46.59155273 12.11352539 C46.59155273 13.10352539 46.59155273 14.09352539 46.59155273 15.11352539 C47.91155273 15.44352539 49.23155273 15.77352539 50.59155273 16.11352539 C51.08655273 18.09352539 51.08655273 18.09352539 51.59155273 20.11352539 C52.58155273 20.11352539 53.57155273 20.11352539 54.59155273 20.11352539 C54.59155273 21.10352539 54.59155273 22.09352539 54.59155273 23.11352539 C55.25155273 23.11352539 55.91155273 23.11352539 56.59155273 23.11352539 C58.77076685 26.29154598 60.19699954 29.53998283 61.59155273 33.11352539 C62.09895996 34.00571777 62.60636719 34.89791016 63.12915039 35.81713867 C64.81121529 39.60866459 64.97887101 42.28345094 64.98999023 46.41821289 C64.9942955 47.44242844 64.9942955 47.44242844 64.99868774 48.48733521 C65.00071861 49.92442662 64.99525745 51.3615463 64.98266602 52.79858398 C64.96664621 54.97582177 64.98252028 57.15118961 65.00170898 59.32836914 C65.01089549 66.44668546 64.80417184 72.60329726 61.59155273 79.11352539 C60.93155273 79.11352539 60.27155273 79.11352539 59.59155273 79.11352539 C59.59155273 80.76352539 59.59155273 82.41352539 59.59155273 84.11352539 C58.60155273 84.11352539 57.61155273 84.11352539 56.59155273 84.11352539 C56.59155273 85.76352539 56.59155273 87.41352539 56.59155273 89.11352539 C55.93155273 89.11352539 55.27155273 89.11352539 54.59155273 89.11352539 C54.59155273 89.77352539 54.59155273 90.43352539 54.59155273 91.11352539 C53.21655273 92.73852539 53.21655273 92.73852539 51.59155273 94.11352539 C50.93155273 94.11352539 50.27155273 94.11352539 49.59155273 94.11352539 C49.09655273 95.59852539 49.09655273 95.59852539 48.59155273 97.11352539 C47.93155273 97.11352539 47.27155273 97.11352539 46.59155273 97.11352539 C46.59155273 97.77352539 46.59155273 98.43352539 46.59155273 99.11352539 C45.60155273 99.60852539 45.60155273 99.60852539 44.59155273 100.11352539 C45.25782785 103.22949451 45.25782785 103.22949451 47.65795898 104.28149414 C48.48166992 104.61793945 49.30538086 104.95438477 50.15405273 105.30102539 C50.9803418 105.64520508 51.80663086 105.98938477 52.65795898 106.34399414 C53.29604492 106.59793945 53.93413086 106.85188477 54.59155273 107.11352539 C54.59155273 108.10352539 54.59155273 109.09352539 54.59155273 110.11352539 C56.24155273 110.11352539 57.89155273 110.11352539 59.59155273 110.11352539 C59.59155273 110.77352539 59.59155273 111.43352539 59.59155273 112.11352539 C60.25155273 112.11352539 60.91155273 112.11352539 61.59155273 112.11352539 C63.21655273 113.48852539 63.21655273 113.48852539 64.59155273 115.11352539 C64.59155273 115.77352539 64.59155273 116.43352539 64.59155273 117.11352539 C65.58155273 117.44352539 66.57155273 117.77352539 67.59155273 118.11352539 C67.59155273 118.77352539 67.59155273 119.43352539 67.59155273 120.11352539 C68.25155273 120.11352539 68.91155273 120.11352539 69.59155273 120.11352539 C69.59155273 120.77352539 69.59155273 121.43352539 69.59155273 122.11352539 C70.58155273 122.44352539 71.57155273 122.77352539 72.59155273 123.11352539 C72.59155273 123.77352539 72.59155273 124.43352539 72.59155273 125.11352539 C73.25155273 125.11352539 73.91155273 125.11352539 74.59155273 125.11352539 C74.59155273 126.10352539 74.59155273 127.09352539 74.59155273 128.11352539 C75.58155273 128.11352539 76.57155273 128.11352539 77.59155273 128.11352539 C77.59155273 129.76352539 77.59155273 131.41352539 77.59155273 133.11352539 C78.25155273 133.11352539 78.91155273 133.11352539 79.59155273 133.11352539 C79.59155273 133.77352539 79.59155273 134.43352539 79.59155273 135.11352539 C80.58155273 135.44352539 81.57155273 135.77352539 82.59155273 136.11352539 C82.59155273 137.43352539 82.59155273 138.75352539 82.59155273 140.11352539 C83.25155273 140.11352539 83.91155273 140.11352539 84.59155273 140.11352539 C84.92155273 142.09352539 85.25155273 144.07352539 85.59155273 146.11352539 C86.25155273 146.11352539 86.91155273 146.11352539 87.59155273 146.11352539 C87.71530273 147.20665039 87.83905273 148.29977539 87.96655273 149.42602539 C88.34620074 153.18734341 88.34620074 153.18734341 90.59155273 156.11352539 C90.97045898 158.55883789 90.97045898 158.55883789 91.15405273 161.23852539 C91.13640152 164.48273514 91.13640152 164.48273514 92.59155273 167.11352539 C92.69071844 168.73610083 92.7223505 170.3629237 92.72436523 171.98852539 C92.7256543 172.97336914 92.72694336 173.95821289 92.72827148 174.97290039 C92.7244043 176.00930664 92.72053711 177.04571289 92.71655273 178.11352539 C92.72041992 179.14993164 92.72428711 180.18633789 92.72827148 181.25415039 C92.72633789 182.73141602 92.72633789 182.73141602 92.72436523 184.23852539 C92.7232373 185.14860352 92.72210938 186.05868164 92.72094727 186.99633789 C92.59155273 189.11352539 92.59155273 189.11352539 91.59155273 190.11352539 C91.30836419 192.95440091 91.14305061 195.79517754 90.97045898 198.64477539 C90.84541992 199.45946289 90.72038086 200.27415039 90.59155273 201.11352539 C89.93155273 201.44352539 89.27155273 201.77352539 88.59155273 202.11352539 C88.18426046 204.43509136 87.84716597 206.77040409 87.59155273 209.11352539 C86.93155273 209.11352539 86.27155273 209.11352539 85.59155273 209.11352539 C85.26155273 211.42352539 84.93155273 213.73352539 84.59155273 216.11352539 C83.93155273 216.11352539 83.27155273 216.11352539 82.59155273 216.11352539 C82.52967773 216.67040039 82.46780273 217.22727539 82.40405273 217.80102539 C81.21040731 221.1983239 79.68984438 223.32837328 76.59155273 225.11352539 C72.34320981 225.88580158 68.12641873 225.80642144 63.81835938 225.77636719 C62.52028854 225.78673508 61.22221771 225.79710297 59.8848114 225.80778503 C56.33088388 225.83481489 52.77765889 225.83013762 49.22367406 225.81808448 C46.25397494 225.81094701 43.28440526 225.81945663 40.31471628 225.82798988 C33.3073483 225.84793624 26.30032152 225.84238017 19.29296875 225.8203125 C12.07006427 225.79795212 4.84805371 225.81554365 -2.37476629 225.85336179 C-8.58219736 225.88461873 -14.78935204 225.89250477 -20.99685198 225.88140804 C-24.70163969 225.87492719 -28.40591175 225.87689229 -32.11063957 225.90073204 C-36.24293989 225.9259697 -40.37357914 225.90234175 -44.50585938 225.87402344 C-45.72943146 225.88773987 -46.95300354 225.9014563 -48.21365356 225.91558838 C-57.45491518 225.78887601 -57.45491518 225.78887601 -61.21485901 222.25349426 C-63.40844727 219.11352539 -63.40844727 219.11352539 -63.40844727 216.11352539 C-64.06844727 216.11352539 -64.72844727 216.11352539 -65.40844727 216.11352539 C-65.40844727 213.80352539 -65.40844727 211.49352539 -65.40844727 209.11352539 C-66.39844727 209.11352539 -67.38844727 209.11352539 -68.40844727 209.11352539 C-70.56676676 203.04325181 -70.61697041 197.51981963 -70.40844727 191.11352539 C-71.06844727 191.11352539 -71.72844727 191.11352539 -72.40844727 191.11352539 C-73.66093228 188.60855535 -73.52219133 186.90499265 -73.50610352 184.10571289 C-73.50288086 183.11958008 -73.4996582 182.13344727 -73.49633789 181.11743164 C-73.48795898 180.08489258 -73.47958008 179.05235352 -73.47094727 177.98852539 C-73.46417969 176.42811523 -73.46417969 176.42811523 -73.45727539 174.83618164 C-73.44546679 172.26190577 -73.42899802 169.68774393 -73.40844727 167.11352539 C-72.41844727 166.78352539 -71.42844727 166.45352539 -70.40844727 166.11352539 C-70.44325195 165.34008789 -70.47805664 164.56665039 -70.51391602 163.76977539 C-70.6878776 157.07639634 -70.21907794 152.20322518 -67.40844727 146.11352539 C-66.74844727 146.11352539 -66.08844727 146.11352539 -65.40844727 146.11352539 C-65.40844727 144.13352539 -65.40844727 142.15352539 -65.40844727 140.11352539 C-64.74844727 140.11352539 -64.08844727 140.11352539 -63.40844727 140.11352539 C-63.07844727 138.46352539 -62.74844727 136.81352539 -62.40844727 135.11352539 C-61.74844727 135.11352539 -61.08844727 135.11352539 -60.40844727 135.11352539 C-60.14032227 134.14415039 -59.87219727 133.17477539 -59.59594727 132.17602539 C-59.00813477 130.66008789 -59.00813477 130.66008789 -58.40844727 129.11352539 C-57.41844727 128.78352539 -56.42844727 128.45352539 -55.40844727 128.11352539 C-55.40844727 127.12352539 -55.40844727 126.13352539 -55.40844727 125.11352539 C-54.41844727 125.11352539 -53.42844727 125.11352539 -52.40844727 125.11352539 C-52.40844727 124.12352539 -52.40844727 123.13352539 -52.40844727 122.11352539 C-51.74844727 122.11352539 -51.08844727 122.11352539 -50.40844727 122.11352539 C-50.40844727 121.45352539 -50.40844727 120.79352539 -50.40844727 120.11352539 C-49.41844727 120.11352539 -48.42844727 120.11352539 -47.40844727 120.11352539 C-47.40844727 119.12352539 -47.40844727 118.13352539 -47.40844727 117.11352539 C-46.74844727 117.11352539 -46.08844727 117.11352539 -45.40844727 117.11352539 C-45.40844727 116.45352539 -45.40844727 115.79352539 -45.40844727 115.11352539 C-44.41844727 115.11352539 -43.42844727 115.11352539 -42.40844727 115.11352539 C-42.40844727 114.12352539 -42.40844727 113.13352539 -42.40844727 112.11352539 C-39.40844727 110.11352539 -39.40844727 110.11352539 -35.40844727 110.11352539 C-34.91344727 108.62852539 -34.91344727 108.62852539 -34.40844727 107.11352539 C-32.15794703 105.69397909 -29.82459211 104.57212854 -27.43969727 103.39477539 C-25.08924689 102.21206731 -25.08924689 102.21206731 -24.40844727 99.11352539 C-25.39844727 99.11352539 -26.38844727 99.11352539 -27.40844727 99.11352539 C-27.40844727 98.45352539 -27.40844727 97.79352539 -27.40844727 97.11352539 C-28.06844727 97.11352539 -28.72844727 97.11352539 -29.40844727 97.11352539 C-29.40844727 96.12352539 -29.40844727 95.13352539 -29.40844727 94.11352539 C-30.39844727 94.11352539 -31.38844727 94.11352539 -32.40844727 94.11352539 C-34.09594727 92.73852539 -34.09594727 92.73852539 -35.40844727 91.11352539 C-35.40844727 90.45352539 -35.40844727 89.79352539 -35.40844727 89.11352539 C-36.06844727 89.11352539 -36.72844727 89.11352539 -37.40844727 89.11352539 C-37.40844727 87.46352539 -37.40844727 85.81352539 -37.40844727 84.11352539 C-38.39844727 83.78352539 -39.38844727 83.45352539 -40.40844727 83.11352539 C-40.40844727 81.79352539 -40.40844727 80.47352539 -40.40844727 79.11352539 C-41.06844727 79.11352539 -41.72844727 79.11352539 -42.40844727 79.11352539 C-42.40844727 77.13352539 -42.40844727 75.15352539 -42.40844727 73.11352539 C-43.06844727 73.11352539 -43.72844727 73.11352539 -44.40844727 73.11352539 C-45.88749964 70.15542063 -45.53035629 67.15880989 -45.50610352 63.91821289 C-45.50468857 63.21076935 -45.50327362 62.50332581 -45.5018158 61.77444458 C-45.49621327 59.51242871 -45.48366044 57.25051141 -45.47094727 54.98852539 C-45.46593259 53.45597474 -45.46136962 51.92342253 -45.45727539 50.39086914 C-45.44624303 46.63171651 -45.42897678 42.87263767 -45.40844727 39.11352539 C-43.92344727 38.61852539 -43.92344727 38.61852539 -42.40844727 38.11352539 C-42.44969727 37.20602539 -42.49094727 36.29852539 -42.53344727 35.36352539 C-42.4131317 32.2353208 -42.01697646 30.72738534 -40.40844727 28.11352539 C-39.74844727 28.11352539 -39.08844727 28.11352539 -38.40844727 28.11352539 C-38.07844727 26.46352539 -37.74844727 24.81352539 -37.40844727 23.11352539 C-36.74844727 23.11352539 -36.08844727 23.11352539 -35.40844727 23.11352539 C-35.40844727 22.12352539 -35.40844727 21.13352539 -35.40844727 20.11352539 C-34.41844727 20.11352539 -33.42844727 20.11352539 -32.40844727 20.11352539 C-32.40844727 19.12352539 -32.40844727 18.13352539 -32.40844727 17.11352539 C-30.09594727 14.42602539 -30.09594727 14.42602539 -27.40844727 12.11352539 C-26.41844727 12.11352539 -25.42844727 12.11352539 -24.40844727 12.11352539 C-24.40844727 11.45352539 -24.40844727 10.79352539 -24.40844727 10.11352539 C-23.74844727 10.11352539 -23.08844727 10.11352539 -22.40844727 10.11352539 C-22.07844727 9.12352539 -21.74844727 8.13352539 -21.40844727 7.11352539 C-20.08844727 7.11352539 -18.76844727 7.11352539 -17.40844727 7.11352539 C-17.40844727 6.45352539 -17.40844727 5.79352539 -17.40844727 5.11352539 C-15.42844727 5.11352539 -13.44844727 5.11352539 -11.40844727 5.11352539 C-11.40844727 4.12352539 -11.40844727 3.13352539 -11.40844727 2.11352539 C-9.35766602 1.88566081 -7.30688477 1.65779622 -5.25610352 1.42993164 C-2.77801279 1.00556515 -2.69259925 0.12691928 0 0 Z M5.59155273 20.11352539 C5.59155273 20.77352539 5.59155273 21.43352539 5.59155273 22.11352539 C2.95155273 22.11352539 0.31155273 22.11352539 -2.40844727 22.11352539 C-2.40844727 22.77352539 -2.40844727 23.43352539 -2.40844727 24.11352539 C-4.05844727 24.44352539 -5.70844727 24.77352539 -7.40844727 25.11352539 C-7.40844727 25.77352539 -7.40844727 26.43352539 -7.40844727 27.11352539 C-9.05844727 27.44352539 -10.70844727 27.77352539 -12.40844727 28.11352539 C-12.40844727 28.77352539 -12.40844727 29.43352539 -12.40844727 30.11352539 C-13.06844727 30.11352539 -13.72844727 30.11352539 -14.40844727 30.11352539 C-16.07511393 31.44685872 -16.07511393 31.44685872 -17.40844727 33.11352539 C-17.40844727 33.77352539 -17.40844727 34.43352539 -17.40844727 35.11352539 C-18.06844727 35.11352539 -18.72844727 35.11352539 -19.40844727 35.11352539 C-19.53219727 35.75290039 -19.65594727 36.39227539 -19.78344727 37.05102539 C-19.98969727 37.73165039 -20.19594727 38.41227539 -20.40844727 39.11352539 C-21.06844727 39.44352539 -21.72844727 39.77352539 -22.40844727 40.11352539 C-24.41532628 45.50964415 -24.66071492 50.33866577 -24.53344727 56.05102539 C-24.52442383 56.83026367 -24.51540039 57.60950195 -24.50610352 58.41235352 C-24.48278417 60.31287986 -24.44692312 62.21324547 -24.40844727 64.11352539 C-23.74844727 64.11352539 -23.08844727 64.11352539 -22.40844727 64.11352539 C-22.47032227 65.20665039 -22.53219727 66.29977539 -22.59594727 67.42602539 C-22.74448693 71.00714027 -22.74448693 71.00714027 -21.03344727 73.05102539 C-19.45304541 74.29594184 -19.45304541 74.29594184 -17.40844727 74.11352539 C-17.40844727 75.76352539 -17.40844727 77.41352539 -17.40844727 79.11352539 C-16.41844727 79.11352539 -15.42844727 79.11352539 -14.40844727 79.11352539 C-14.40844727 79.77352539 -14.40844727 80.43352539 -14.40844727 81.11352539 C-13.08844727 81.44352539 -11.76844727 81.77352539 -10.40844727 82.11352539 C-10.40844727 82.77352539 -10.40844727 83.43352539 -10.40844727 84.11352539 C-9.41844727 84.11352539 -8.42844727 84.11352539 -7.40844727 84.11352539 C-7.40844727 85.10352539 -7.40844727 86.09352539 -7.40844727 87.11352539 C-5.75844727 87.11352539 -4.10844727 87.11352539 -2.40844727 87.11352539 C-2.40844727 87.77352539 -2.40844727 88.43352539 -2.40844727 89.11352539 C5.51155273 89.11352539 13.43155273 89.11352539 21.59155273 89.11352539 C21.59155273 88.45352539 21.59155273 87.79352539 21.59155273 87.11352539 C23.24155273 87.11352539 24.89155273 87.11352539 26.59155273 87.11352539 C26.59155273 86.12352539 26.59155273 85.13352539 26.59155273 84.11352539 C27.58155273 84.11352539 28.57155273 84.11352539 29.59155273 84.11352539 C29.59155273 83.45352539 29.59155273 82.79352539 29.59155273 82.11352539 C32.06655273 81.61852539 32.06655273 81.61852539 34.59155273 81.11352539 C34.59155273 80.45352539 34.59155273 79.79352539 34.59155273 79.11352539 C35.25155273 79.11352539 35.91155273 79.11352539 36.59155273 79.11352539 C36.59155273 77.46352539 36.59155273 75.81352539 36.59155273 74.11352539 C37.58155273 74.11352539 38.57155273 74.11352539 39.59155273 74.11352539 C39.59155273 73.12352539 39.59155273 72.13352539 39.59155273 71.11352539 C40.25155273 71.11352539 40.91155273 71.11352539 41.59155273 71.11352539 C41.59155273 68.80352539 41.59155273 66.49352539 41.59155273 64.11352539 C42.58155273 64.11352539 43.57155273 64.11352539 44.59155273 64.11352539 C44.64549978 61.50908191 44.68519743 58.90575541 44.71655273 56.30102539 C44.74168945 55.19404297 44.74168945 55.19404297 44.76733398 54.06469727 C44.80229902 50.20106113 44.78552828 48.40448871 42.59155273 45.11352539 C42.20655382 43.45803008 41.86362139 41.79128209 41.59155273 40.11352539 C40.93155273 40.11352539 40.27155273 40.11352539 39.59155273 40.11352539 C39.46780273 39.51540039 39.34405273 38.91727539 39.21655273 38.30102539 C38.63679288 35.85121191 38.63679288 35.85121191 36.59155273 33.11352539 C35.93155273 33.11352539 35.27155273 33.11352539 34.59155273 33.11352539 C34.59155273 32.12352539 34.59155273 31.13352539 34.59155273 30.11352539 C33.60155273 30.11352539 32.61155273 30.11352539 31.59155273 30.11352539 C31.59155273 29.45352539 31.59155273 28.79352539 31.59155273 28.11352539 C29.11655273 27.61852539 29.11655273 27.61852539 26.59155273 27.11352539 C26.59155273 26.45352539 26.59155273 25.79352539 26.59155273 25.11352539 C24.11655273 24.61852539 24.11655273 24.61852539 21.59155273 24.11352539 C21.59155273 23.45352539 21.59155273 22.79352539 21.59155273 22.11352539 C18.95155273 22.11352539 16.31155273 22.11352539 13.59155273 22.11352539 C13.59155273 21.45352539 13.59155273 20.79352539 13.59155273 20.11352539 C10.95155273 20.11352539 8.31155273 20.11352539 5.59155273 20.11352539 Z M-5.40844727 119.11352539 C-7.73232673 119.50740327 -10.06638476 119.84838624 -12.40844727 120.11352539 C-12.40844727 120.77352539 -12.40844727 121.43352539 -12.40844727 122.11352539 C-14.05844727 122.11352539 -15.70844727 122.11352539 -17.40844727 122.11352539 C-17.40844727 123.10352539 -17.40844727 124.09352539 -17.40844727 125.11352539 C-19.05844727 125.11352539 -20.70844727 125.11352539 -22.40844727 125.11352539 C-22.40844727 125.77352539 -22.40844727 126.43352539 -22.40844727 127.11352539 C-23.39844727 127.11352539 -24.38844727 127.11352539 -25.40844727 127.11352539 C-25.40844727 128.10352539 -25.40844727 129.09352539 -25.40844727 130.11352539 C-26.39844727 130.11352539 -27.38844727 130.11352539 -28.40844727 130.11352539 C-28.40844727 130.77352539 -28.40844727 131.43352539 -28.40844727 132.11352539 C-30.74058874 133.31980547 -32.90486865 134.27899919 -35.40844727 135.11352539 C-37.5232994 138.4724082 -39.15674886 141.35843018 -40.40844727 145.11352539 C-41.06844727 145.11352539 -41.72844727 145.11352539 -42.40844727 145.11352539 C-42.73844727 146.76352539 -43.06844727 148.41352539 -43.40844727 150.11352539 C-44.06844727 150.11352539 -44.72844727 150.11352539 -45.40844727 150.11352539 C-45.40844727 151.76352539 -45.40844727 153.41352539 -45.40844727 155.11352539 C-46.06844727 155.11352539 -46.72844727 155.11352539 -47.40844727 155.11352539 C-53.13807061 166.82188613 -51.70837591 181.49421806 -50.40844727 194.11352539 C-49.74844727 194.11352539 -49.08844727 194.11352539 -48.40844727 194.11352539 C-48.07844727 196.75352539 -47.74844727 199.39352539 -47.40844727 202.11352539 C-46.74844727 202.11352539 -46.08844727 202.11352539 -45.40844727 202.11352539 C-45.40844727 202.77352539 -45.40844727 203.43352539 -45.40844727 204.11352539 C-9.10844727 204.11352539 27.19155273 204.11352539 64.59155273 204.11352539 C64.59155273 203.45352539 64.59155273 202.79352539 64.59155273 202.11352539 C65.58155273 202.11352539 66.57155273 202.11352539 67.59155273 202.11352539 C67.59155273 199.47352539 67.59155273 196.83352539 67.59155273 194.11352539 C68.25155273 194.11352539 68.91155273 194.11352539 69.59155273 194.11352539 C70.75656328 178.5984153 70.75656328 178.5984153 69.59155273 163.11352539 C69.26155273 162.78352539 68.93155273 162.45352539 68.59155273 162.11352539 C68.22394542 159.78534575 67.88913693 157.45168689 67.59155273 155.11352539 C66.60155273 155.11352539 65.61155273 155.11352539 64.59155273 155.11352539 C64.59155273 153.46352539 64.59155273 151.81352539 64.59155273 150.11352539 C63.93155273 150.11352539 63.27155273 150.11352539 62.59155273 150.11352539 C62.59155273 148.46352539 62.59155273 146.81352539 62.59155273 145.11352539 C61.60155273 145.11352539 60.61155273 145.11352539 59.59155273 145.11352539 C59.30280273 144.14415039 59.01405273 143.17477539 58.71655273 142.17602539 C57.94940592 139.00688336 57.94940592 139.00688336 55.59155273 138.11352539 C55.09655273 136.62852539 55.09655273 136.62852539 54.59155273 135.11352539 C53.60155273 135.11352539 52.61155273 135.11352539 51.59155273 135.11352539 C51.09655273 133.62852539 51.09655273 133.62852539 50.59155273 132.11352539 C47.7764528 129.83617529 47.7764528 129.83617529 44.59155273 130.11352539 C44.59155273 129.12352539 44.59155273 128.13352539 44.59155273 127.11352539 C43.60155273 127.11352539 42.61155273 127.11352539 41.59155273 127.11352539 C41.59155273 126.45352539 41.59155273 125.79352539 41.59155273 125.11352539 C40.63249023 124.92790039 40.63249023 124.92790039 39.65405273 124.73852539 C38.97342773 124.53227539 38.29280273 124.32602539 37.59155273 124.11352539 C37.09655273 123.12352539 37.09655273 123.12352539 36.59155273 122.11352539 C34.2562526 121.33995722 31.96814183 120.66622513 29.59155273 120.05102539 C22.70601057 118.22798322 22.70601057 118.22798322 21.59155273 117.11352539 C17.63971405 116.86052948 13.67553015 116.92829805 9.71655273 116.92602539 C8.60151367 116.9137793 7.48647461 116.9015332 6.33764648 116.88891602 C4.73469727 116.88601563 4.73469727 116.88601563 3.09936523 116.88305664 C2.11597168 116.87894775 1.13257813 116.87483887 0.11938477 116.87060547 C-2.65445469 116.93623361 -2.65445469 116.93623361 -5.40844727 119.11352539 Z " fill="#000000" transform="translate(245.408447265625,192.886474609375)"/>
<path d="M0 0 C5.61 0 11.22 0 17 0 C17.495 0.99 17.495 0.99 18 2 C19.92469088 2.39368517 19.92469088 2.39368517 22.1875 2.5 C26.0457682 2.83898522 29.36392224 3.60150855 33 5 C33 5.99 33 6.98 33 8 C33.763125 8.12375 34.52625 8.2475 35.3125 8.375 C38 9 38 9 41 11 C41 11.66 41 12.32 41 13 C41.66 13 42.32 13 43 13 C43 13.66 43 14.32 43 15 C43.99 15.33 44.98 15.66 46 16 C46 16.66 46 17.32 46 18 C46.66 18 47.32 18 48 18 C49.625 19.1875 49.625 19.1875 51 21 C51.1875 23.6875 51.1875 23.6875 51 26 C51.99 26 52.98 26 54 26 C54 27.65 54 29.3 54 31 C54.66 31 55.32 31 56 31 C56 33.64 56 36.28 56 39 C56.66 39 57.32 39 58 39 C59.81948976 42.63897951 59.18470453 46.93159288 59.1875 50.9375 C59.19974609 51.85724609 59.21199219 52.77699219 59.22460938 53.72460938 C59.22654297 54.60826172 59.22847656 55.49191406 59.23046875 56.40234375 C59.23457764 57.21179443 59.23868652 58.02124512 59.24291992 58.85522461 C59 61 59 61 57 64 C56.60612212 66.32387947 56.26513915 68.65793749 56 71 C55.34 71 54.68 71 54 71 C54 72.65 54 74.3 54 76 C52.515 76.495 52.515 76.495 51 77 C51 78.32 51 79.64 51 81 C49.625 82.75 49.625 82.75 48 84 C47.34 84 46.68 84 46 84 C46 84.99 46 85.98 46 87 C45.01 87 44.02 87 43 87 C43 87.66 43 88.32 43 89 C42.34 89 41.68 89 41 89 C41 89.99 41 90.98 41 92 C40.01 92 39.02 92 38 92 C38 92.66 38 93.32 38 94 C36.35 94.33 34.7 94.66 33 95 C33 95.66 33 96.32 33 97 C31.35 97 29.7 97 28 97 C28 97.66 28 98.32 28 99 C25.24921116 99.91692961 23.64051087 100.10886083 20.8125 100.0625 C19.554375 100.041875 18.29625 100.02125 17 100 C17 100.66 17 101.32 17 102 C18.69769531 101.98259766 18.69769531 101.98259766 20.4296875 101.96484375 C21.91145669 101.95546546 23.39322765 101.9463653 24.875 101.9375 C25.62136719 101.92912109 26.36773437 101.92074219 27.13671875 101.91210938 C32.7734375 101.88671875 32.7734375 101.88671875 35 103 C35 103.66 35 104.32 35 105 C37.64 105 40.28 105 43 105 C43 105.99 43 106.98 43 108 C43.70125 107.938125 44.4025 107.87625 45.125 107.8125 C48.65260212 108.04256101 50.93984351 109.29200568 54 111 C54 111.66 54 112.32 54 113 C54.78375 113.144375 55.5675 113.28875 56.375 113.4375 C59 114 59 114 61 115 C61 115.99 61 116.98 61 118 C62.1446875 118.185625 62.1446875 118.185625 63.3125 118.375 C66 119 66 119 69 121 C69 121.66 69 122.32 69 123 C69.66 123 70.32 123 71 123 C72.625 124.375 72.625 124.375 74 126 C74 126.66 74 127.32 74 128 C74.66 128 75.32 128 76 128 C78.04169485 130.90548882 79 132.40142046 79 136 C79.99 136 80.98 136 82 136 C82 136.99 82 137.98 82 139 C82.66 139 83.32 139 84 139 C84 140.32 84 141.64 84 143 C84.99 143.33 85.98 143.66 87 144 C87 145.65 87 147.3 87 149 C87.66 149 88.32 149 89 149 C89.33 151.31 89.66 153.62 90 156 C90.66 156 91.32 156 92 156 C92 158.64 92 161.28 92 164 C92.66 164 93.32 164 94 164 C95.18769234 167.56307702 95.12956485 170.42765324 95.1328125 174.1875 C95.13376923 174.88641357 95.13472595 175.58532715 95.13571167 176.30541992 C95.13639141 177.78141368 95.13455145 179.25741045 95.13037109 180.73339844 C95.12501989 182.99160481 95.13032298 185.2496123 95.13671875 187.5078125 C95.13605793 188.94270877 95.13477669 190.37760492 95.1328125 191.8125 C95.13168457 193.11832031 95.13055664 194.42414063 95.12939453 195.76953125 C95 199 95 199 94 202 C93.34 202 92.68 202 92 202 C92.03480469 202.58007812 92.06960938 203.16015625 92.10546875 203.7578125 C92.28744524 209.009134 91.83377711 212.39511219 89 217 C88.34 217 87.68 217 87 217 C87 218.65 87 220.3 87 222 C86.01 222.33 85.02 222.66 84 223 C84 224.65 84 226.3 84 228 C83.01 228 82.02 228 81 228 C81 228.66 81 229.32 81 230 C58.56 230 36.12 230 13 230 C13 229.34 13 228.68 13 228 C12.01 227.67 11.02 227.34 10 227 C10 226.34 10 225.68 10 225 C9.34 225 8.68 225 8 225 C8 221.04 8 217.08 8 213 C8.66 213 9.32 213 10 213 C10.33 212.01 10.66 211.02 11 210 C39.215 209.505 39.215 209.505 68 209 C68.495 206.03 68.495 206.03 69 203 C69.66 202.67 70.32 202.34 71 202 C71.37400786 199.67284 71.70764733 197.33882138 72 195 C72.33 194.67 72.66 194.34 73 194 C73.09880797 192.52347336 73.13079245 191.04232764 73.1328125 189.5625 C73.13410156 188.66789063 73.13539063 187.77328125 73.13671875 186.8515625 C73.13285156 185.91054688 73.12898438 184.96953125 73.125 184 C73.12886719 183.05898438 73.13273437 182.11796875 73.13671875 181.1484375 C73.13542969 180.25382813 73.13414062 179.35921875 73.1328125 178.4375 C73.13112061 177.19806641 73.13112061 177.19806641 73.12939453 175.93359375 C73.21264807 173.99320961 73.21264807 173.99320961 72 173 C71.92820036 171.48071962 71.91607993 169.95832518 71.9375 168.4375 C71.94652344 167.61121094 71.95554687 166.78492188 71.96484375 165.93359375 C71.97644531 165.29550781 71.98804688 164.65742188 72 164 C71.01 163.67 70.02 163.34 69 163 C69 161.35 69 159.7 69 158 C68.34 158 67.68 158 67 158 C67 156.35 67 154.7 67 153 C66.01 153 65.02 153 64 153 C64 151.35 64 149.7 64 148 C63.34 148 62.68 148 62 148 C62 147.34 62 146.68 62 146 C61.01 146 60.02 146 59 146 C59 145.01 59 144.02 59 143 C58.360625 142.731875 57.72125 142.46375 57.0625 142.1875 C55 141 55 141 54 138 C53.01 138 52.02 138 51 138 C50.01 135.525 50.01 135.525 49 133 C47.35 133 45.7 133 44 133 C44 132.01 44 131.02 44 130 C43.46375 129.87625 42.9275 129.7525 42.375 129.625 C39.5361714 128.87793984 36.77776798 127.94696636 34 127 C34 126.34 34 125.68 34 125 C31.36 125 28.72 125 26 125 C26 124.34 26 123.68 26 123 C20.39 123 14.78 123 9 123 C8.67 122.01 8.34 121.02 8 120 C6.01954441 119.33820153 6.01954441 119.33820153 4 119 C3 118 3 118 2.90234375 115.05859375 C2.91394531 113.86363281 2.92554688 112.66867188 2.9375 111.4375 C2.94652344 110.23996094 2.95554687 109.04242188 2.96484375 107.80859375 C2.97644531 106.88175781 2.98804688 105.95492187 3 105 C3.66 105 4.32 105 5 105 C5 104.34 5 103.68 5 103 C3.35 102.67 1.7 102.34 0 102 C0 101.34 0 100.68 0 100 C-3.3 100 -6.6 100 -10 100 C-10 99.01 -10 98.02 -10 97 C-11.6396875 96.814375 -11.6396875 96.814375 -13.3125 96.625 C-17 96 -17 96 -20 94 C-20 93.34 -20 92.68 -20 92 C-21.65 91.67 -23.3 91.34 -25 91 C-25 90.34 -25 89.68 -25 89 C-25.99 89 -26.98 89 -28 89 C-29.38671875 87.57421875 -29.38671875 87.57421875 -30.6875 85.6875 C-31.12449219 85.07261719 -31.56148438 84.45773438 -32.01171875 83.82421875 C-33 82 -33 82 -33 79 C-33.99 79 -34.98 79 -36 79 C-36 77.35 -36 75.7 -36 74 C-36.66 74 -37.32 74 -38 74 C-38 72.35 -38 70.7 -38 69 C-38.99 69 -39.98 69 -41 69 C-41.06058594 68.07316406 -41.12117188 67.14632812 -41.18359375 66.19140625 C-41.26738281 64.99386719 -41.35117187 63.79632813 -41.4375 62.5625 C-41.51871094 61.36753906 -41.59992188 60.17257813 -41.68359375 58.94140625 C-41.67656114 56.11429756 -41.67656114 56.11429756 -43 55 C-43.1328125 53.1875 -43.1328125 53.1875 -43.125 51 C-43.12757813 50.278125 -43.13015625 49.55625 -43.1328125 48.8125 C-43 47 -43 47 -42 46 C-41.76572222 43.98405418 -41.58663876 41.961526 -41.4375 39.9375 C-41.31181641 38.28041016 -41.31181641 38.28041016 -41.18359375 36.58984375 C-41.12300781 35.73519531 -41.06242187 34.88054687 -41 34 C-39.515 33.505 -39.515 33.505 -38 33 C-38 31.35 -38 29.7 -38 28 C-37.34 28 -36.68 28 -36 28 C-36 26.35 -36 24.7 -36 23 C-35.01 23 -34.02 23 -33 23 C-32.87625 22.401875 -32.7525 21.80375 -32.625 21.1875 C-32 19 -32 19 -30 16 C-29.34 16 -28.68 16 -28 16 C-28 15.01 -28 14.02 -28 13 C-27.01 13 -26.02 13 -25 13 C-25 12.34 -25 11.68 -25 11 C-23.35 10.67 -21.7 10.34 -20 10 C-20 9.34 -20 8.68 -20 8 C-19.01 8 -18.02 8 -17 8 C-17 7.34 -17 6.68 -17 6 C-13.535 5.505 -13.535 5.505 -10 5 C-10 4.34 -10 3.68 -10 3 C-7.03 3 -4.06 3 -1 3 C-0.67 2.01 -0.34 1.02 0 0 Z M-3 23 C-3 23.66 -3 24.32 -3 25 C-4.65 25.33 -6.3 25.66 -8 26 C-8 26.66 -8 27.32 -8 28 C-8.66 28 -9.32 28 -10 28 C-10 28.66 -10 29.32 -10 30 C-10.99 30.33 -11.98 30.66 -13 31 C-13 31.66 -13 32.32 -13 33 C-13.66 33 -14.32 33 -15 33 C-16.72840348 34.14397385 -16.72840348 34.14397385 -18 36 C-18.25069913 38.62570704 -18.25069913 38.62570704 -18 41 C-18.99 41.33 -19.98 41.66 -21 42 C-21 48.27 -21 54.54 -21 61 C-20.34 61.33 -19.68 61.66 -19 62 C-18.375 64.5625 -18.375 64.5625 -18 67 C-17.01 67 -16.02 67 -15 67 C-15 67.66 -15 68.32 -15 69 C-14.34 69 -13.68 69 -13 69 C-13 69.99 -13 70.98 -13 72 C-11.35 72.66 -9.7 73.32 -8 74 C-8 74.99 -8 75.98 -8 77 C-6.35 77 -4.7 77 -3 77 C-3 77.66 -3 78.32 -3 79 C4.18050184 79.71148265 10.87028851 80.25818438 18 79 C18 78.34 18 77.68 18 77 C19.1446875 77.0928125 19.1446875 77.0928125 20.3125 77.1875 C23.0205342 77.24498309 23.0205342 77.24498309 24.8125 75.625 C26.1966722 74.06631217 26.1966722 74.06631217 26 72 C26.99 72 27.98 72 29 72 C29.66 70.35 30.32 68.7 31 67 C31.66 67 32.32 67 33 67 C33.33 65.35 33.66 63.7 34 62 C34.66 62 35.32 62 36 62 C36.144375 60.865625 36.28875 59.73125 36.4375 58.5625 C37 55 37 55 38 54 C38.16666667 51 38.16666667 51 38 48 C37.67 47.67 37.34 47.34 37 47 C36.63239269 44.67182036 36.29758419 42.3381615 36 40 C35.34 40 34.68 40 34 40 C33.690625 39.21625 33.38125 38.4325 33.0625 37.625 C32.07124962 35.07669872 32.07124962 35.07669872 31 33 C30.34 33 29.68 33 29 33 C28.505 31.515 28.505 31.515 28 30 C27.34 30 26.68 30 26 30 C26 29.34 26 28.68 26 28 C25.01 28 24.02 28 23 28 C22.505 26.515 22.505 26.515 22 25 C20.68 25 19.36 25 18 25 C18 24.34 18 23.68 18 23 C10.81191259 22.11173825 4.17757765 21.98797712 -3 23 Z " fill="#000000" transform="translate(323,108)"/>
<path d="M0 0 C5.61 0 11.22 0 17 0 C17 0.99 17 1.98 17 3 C20.3 3 23.6 3 27 3 C27 3.66 27 4.32 27 5 C28.65 5 30.3 5 32 5 C32.495 6.485 32.495 6.485 33 8 C34.175625 8.2165625 34.175625 8.2165625 35.375 8.4375 C38 9 38 9 40 10 C40 10.99 40 11.98 40 13 C40.99 13 41.98 13 43 13 C43 13.66 43 14.32 43 15 C43.66 15 44.32 15 45 15 C46.625 16.3125 46.625 16.3125 48 18 C48 18.99 48 19.98 48 21 C48.99 21.33 49.98 21.66 51 22 C51 23.32 51 24.64 51 26 C51.66 26 52.32 26 53 26 C53 27.65 53 29.3 53 31 C53.99 31 54.98 31 56 31 C58.40432027 37.59990703 58.33211097 43.96776171 58.3125 50.9375 C58.32861328 52.07896484 58.34472656 53.22042969 58.36132812 54.39648438 C58.36513948 60.99394692 57.78986959 66.00067621 55 72 C54.34 72 53.68 72 53 72 C53 73.65 53 75.3 53 77 C52.34 77 51.68 77 51 77 C50.67 78.65 50.34 80.3 50 82 C49.34 82 48.68 82 48 82 C48 82.66 48 83.32 48 84 C47.34 84 46.68 84 46 84 C45.505 85.485 45.505 85.485 45 87 C44.34 87 43.68 87 43 87 C43 87.66 43 88.32 43 89 C41.625 90.625 41.625 90.625 40 92 C39.34 92 38.68 92 38 92 C38 92.66 38 93.32 38 94 C34.14243493 96.15305957 31.44870215 97.39253254 27 97 C26.505 98.485 26.505 98.485 26 100 C23.03 100 20.06 100 17 100 C17 100.66 17 101.32 17 102 C14.36 102.33 11.72 102.66 9 103 C9.33 103.66 9.66 104.32 10 105 C10.14779962 106.9753988 10.22118966 108.95678924 10.25 110.9375 C10.27578125 111.99839844 10.3015625 113.05929688 10.328125 114.15234375 C10 117 10 117 8.671875 118.87890625 C7 120 7 120 4 120 C4 120.66 4 121.32 4 122 C0.42028333 123.19323889 -2.95683752 123.22851582 -6.6875 123.375 C-16.03800467 123.64698286 -16.03800467 123.64698286 -24 128 C-25.66617115 128.04063832 -27.33388095 128.042721 -29 128 C-29 128.66 -29 129.32 -29 130 C-30.25 131.625 -30.25 131.625 -32 133 C-33.32 133 -34.64 133 -36 133 C-36.33 133.99 -36.66 134.98 -37 136 C-37.66 136 -38.32 136 -39 136 C-39 136.66 -39 137.32 -39 138 C-39.99 138 -40.98 138 -42 138 C-42 138.99 -42 139.98 -42 141 C-42.66 141 -43.32 141 -44 141 C-44 141.66 -44 142.32 -44 143 C-44.99 143 -45.98 143 -47 143 C-47 143.99 -47 144.98 -47 146 C-47.66 146 -48.32 146 -49 146 C-49.33 147.32 -49.66 148.64 -50 150 C-50.66 150 -51.32 150 -52 150 C-52 150.99 -52 151.98 -52 153 C-52.66 153 -53.32 153 -54 153 C-54 154.65 -54 156.3 -54 158 C-54.66 158.33 -55.32 158.66 -56 159 C-56.8013619 161.85741085 -57.49708506 164.66711443 -58.125 167.5625 C-58.30675781 168.36880859 -58.48851563 169.17511719 -58.67578125 170.00585938 C-59.12467118 172.00223825 -59.56329743 174.0009198 -60 176 C-60.66 176 -61.32 176 -62 176 C-62 180.62 -62 185.24 -62 190 C-61.34 190 -60.68 190 -60 190 C-59.89042969 190.71285156 -59.78085938 191.42570313 -59.66796875 192.16015625 C-58.45513997 201.24123546 -58.45513997 201.24123546 -54 209 C-52.25161165 209.1231517 -50.49835496 209.17787811 -48.74584961 209.20532227 C-47.62476303 209.22526749 -46.50367645 209.24521271 -45.34861755 209.26576233 C-44.1288472 209.28247482 -42.90907684 209.29918732 -41.65234375 209.31640625 C-39.7899984 209.3475779 -39.7899984 209.3475779 -37.89002991 209.37937927 C-34.58400877 209.43383609 -31.27797755 209.48404205 -27.97186279 209.53222656 C-24.60032509 209.58239856 -21.22887947 209.63810701 -17.85742188 209.69335938 C-11.23835449 209.80070038 -4.6192184 209.90244198 2 210 C2 210.99 2 211.98 2 213 C2.66 213 3.32 213 4 213 C5.20272819 215.40545638 5.10071472 216.94996953 5.0625 219.625 C5.05347656 220.44226563 5.04445313 221.25953125 5.03515625 222.1015625 C5.02355469 222.72804688 5.01195312 223.35453125 5 224 C4.01 224.33 3.02 224.66 2 225 C2 225.99 2 226.98 2 228 C1.01 228 0.02 228 -1 228 C-1 228.66 -1 229.32 -1 230 C-22.78 230 -44.56 230 -67 230 C-67 229.34 -67 228.68 -67 228 C-68.32 227.67 -69.64 227.34 -71 227 C-71.33 225.35 -71.66 223.7 -72 222 C-72.99 221.67 -73.98 221.34 -75 221 C-75 219.68 -75 218.36 -75 217 C-75.66 217 -76.32 217 -77 217 C-77 214.69 -77 212.38 -77 210 C-77.99 209.67 -78.98 209.34 -80 209 C-80 205.7 -80 202.4 -80 199 C-80.66 199 -81.32 199 -82 199 C-82.02465504 194.60343827 -82.04283842 190.2069128 -82.05493164 185.81030273 C-82.05997121 184.31355082 -82.06680287 182.81680384 -82.07543945 181.32006836 C-82.08752159 179.17300193 -82.09323191 177.02600038 -82.09765625 174.87890625 C-82.10289307 173.5854126 -82.10812988 172.29191895 -82.11352539 170.95922852 C-82 168 -82 168 -81 167 C-80.76712992 165.31816052 -80.58735834 163.6287584 -80.4375 161.9375 C-80.35371094 161.01839844 -80.26992187 160.09929687 -80.18359375 159.15234375 C-80.12300781 158.44207031 -80.06242187 157.73179687 -80 157 C-79.01 156.67 -78.02 156.34 -77 156 C-77.061875 155.13375 -77.12375 154.2675 -77.1875 153.375 C-76.97544498 149.55800967 -75.87955693 147.28922464 -74 144 C-73.34 144 -72.68 144 -72 144 C-71.87625 143.4225 -71.7525 142.845 -71.625 142.25 C-70.99351176 139.97664233 -70.11141809 138.0746471 -69 136 C-68.34 136 -67.68 136 -67 136 C-67 135.01 -67 134.02 -67 133 C-66.01 133 -65.02 133 -64 133 C-63.855625 132.21625 -63.71125 131.4325 -63.5625 130.625 C-63 128 -63 128 -62 126 C-61.01 126 -60.02 126 -59 126 C-59 125.01 -59 124.02 -59 123 C-53.88372093 118 -53.88372093 118 -49 118 C-49 117.01 -49 116.02 -49 115 C-48.01 115 -47.02 115 -46 115 C-46 114.34 -46 113.68 -46 113 C-44.35 113 -42.7 113 -41 113 C-41 112.01 -41 111.02 -41 110 C-39.35 110 -37.7 110 -36 110 C-36 109.34 -36 108.68 -36 108 C-34.35 108 -32.7 108 -31 108 C-31 107.01 -31 106.02 -31 105 C-28.36 105 -25.72 105 -23 105 C-23 104.34 -23 103.68 -23 103 C-20.35541621 101.67770811 -18.32238699 101.90322806 -15.375 101.9375 C-14.37210937 101.94652344 -13.36921875 101.95554687 -12.3359375 101.96484375 C-11.56507813 101.97644531 -10.79421875 101.98804688 -10 102 C-10.33 100.35 -10.66 98.7 -11 97 C-12.65 97 -14.3 97 -16 97 C-16 96.34 -16 95.68 -16 95 C-17.65 94.67 -19.3 94.34 -21 94 C-21 93.34 -21 92.68 -21 92 C-21.66 92 -22.32 92 -23 92 C-24.35432675 90.68799596 -25.68733482 89.35368596 -27 88 C-27.99 87.505 -27.99 87.505 -29 87 C-29 86.01 -29 85.02 -29 84 C-29.66 84 -30.32 84 -31 84 C-31 83.34 -31 82.68 -31 82 C-31.99 81.67 -32.98 81.34 -34 81 C-34 80.34 -34 79.68 -34 79 C-34.66 79 -35.32 79 -36 79 C-36 77.35 -36 75.7 -36 74 C-36.99 74 -37.98 74 -39 74 C-41.23400515 67.02207158 -41.3396588 60.31353988 -41.31567383 53.01855469 C-41.31250631 51.00400998 -41.33606271 48.99092737 -41.36132812 46.9765625 C-41.36483827 39.94222481 -41.07929067 34.36982555 -38 28 C-37.34 28 -36.68 28 -36 28 C-36 26.35 -36 24.7 -36 23 C-35.34 23 -34.68 23 -34 23 C-34 22.34 -34 21.68 -34 21 C-33.01 21 -32.02 21 -31 21 C-31 20.01 -31 19.02 -31 18 C-30.34 18 -29.68 18 -29 18 C-28.7525 17.360625 -28.505 16.72125 -28.25 16.0625 C-27 14 -27 14 -24.875 13.25 C-23.946875 13.12625 -23.946875 13.12625 -23 13 C-23 12.01 -23 11.02 -23 10 C-22.34 10 -21.68 10 -21 10 C-21 9.34 -21 8.68 -21 8 C-19.35 8 -17.7 8 -16 8 C-16 7.01 -16 6.02 -16 5 C-14.35 5 -12.7 5 -11 5 C-11 4.34 -11 3.68 -11 3 C-7.37 3 -3.74 3 0 3 C0 2.01 0 1.02 0 0 Z M-3 23 C-3 23.66 -3 24.32 -3 25 C-4.65 25.33 -6.3 25.66 -8 26 C-8 26.66 -8 27.32 -8 28 C-8.99 28 -9.98 28 -11 28 C-11.66 29.65 -12.32 31.3 -13 33 C-13.99 33 -14.98 33 -16 33 C-16 34.65 -16 36.3 -16 38 C-16.66 38 -17.32 38 -18 38 C-18.33 39.65 -18.66 41.3 -19 43 C-19.66 43 -20.32 43 -21 43 C-21 48.28 -21 53.56 -21 59 C-20.34 59 -19.68 59 -19 59 C-18.87625 59.721875 -18.7525 60.44375 -18.625 61.1875 C-17.65637165 65.54632756 -16.5965753 69.15271122 -13 72 C-12.34 72 -11.68 72 -11 72 C-11 72.66 -11 73.32 -11 74 C-10.01 74 -9.02 74 -8 74 C-8 74.99 -8 75.98 -8 77 C-6.35 77 -4.7 77 -3 77 C-3 77.66 -3 78.32 -3 79 C10.31327856 80.54946569 10.31327856 80.54946569 23 77 C23.495 76.01 23.495 76.01 24 75 C26.0625 74.375 26.0625 74.375 28 74 C28 73.34 28 72.68 28 72 C28.66 72 29.32 72 30 72 C30.33 70.35 30.66 68.7 31 67 C31.66 67 32.32 67 33 67 C33 66.01 33 65.02 33 64 C33.66 64 34.32 64 35 64 C35.309375 62.865625 35.61875 61.73125 35.9375 60.5625 C37 57 37 57 38 56 C38.07205511 54.31391034 38.08386068 52.62499341 38.0625 50.9375 C38.05347656 50.01839844 38.04445312 49.09929687 38.03515625 48.15234375 C38.02355469 47.44207031 38.01195312 46.73179687 38 46 C37.34 46 36.68 46 36 46 C35.505 42.04 35.505 42.04 35 38 C34.34 38 33.68 38 33 38 C33 37.01 33 36.02 33 35 C32.34 35 31.68 35 31 35 C30.505 33.02 30.505 33.02 30 31 C29.34 31 28.68 31 28 31 C28 30.01 28 29.02 28 28 C26.35 28 24.7 28 23 28 C22.505 26.515 22.505 26.515 22 25 C20.68 25 19.36 25 18 25 C18 24.34 18 23.68 18 23 C11.07 23 4.14 23 -3 23 Z " fill="#000000" transform="translate(175,108)"/>
</svg>
