<?xml version="1.0" encoding="UTF-8"?>
<svg xmlns="http://www.w3.org/2000/svg" xmlns:xlink="http://www.w3.org/1999/xlink" width="512px" height="512px" viewBox="0 0 512 512" version="1.1">
<g id="surface1">
<path style=" stroke:none;fill-rule:nonzero;fill:rgb(0%,0%,0%);fill-opacity:1;" d="M 279.839844 198.878906 C 294.019531 207.027344 304.457031 217.328125 309.761719 232.960938 C 311.996094 251.785156 311.886719 267.011719 300.511719 282.660156 C 296.925781 286.757812 293.191406 290.613281 289.28125 294.398438 C 290.765625 295.484375 292.25 296.570312 293.78125 297.691406 C 315.136719 313.726562 329.585938 328.207031 337.121094 354.238281 C 339.769531 376.492188 336.121094 393.835938 327.679688 414.71875 C 325.121094 417.28125 325.121094 417.28125 319.5625 417.585938 C 317.113281 417.582031 314.664062 417.578125 312.140625 417.570312 C 309.371094 417.570312 306.605469 417.570312 303.753906 417.570312 C 299.238281 417.550781 299.238281 417.550781 294.628906 417.53125 C 291.566406 417.527344 288.5 417.523438 285.34375 417.519531 C 275.507812 417.503906 265.675781 417.472656 255.839844 417.441406 C 249.191406 417.425781 242.542969 417.414062 235.894531 417.40625 C 219.554688 417.375 203.21875 417.332031 186.878906 417.28125 C 185.207031 414 183.542969 410.714844 181.878906 407.429688 C 180.488281 404.6875 180.488281 404.6875 179.066406 401.890625 C 169.925781 382.722656 172.914062 360.671875 179.460938 341.191406 C 187.542969 320.703125 204.734375 306.390625 222.71875 294.398438 C 221.144531 292.636719 221.144531 292.636719 219.539062 290.839844 C 218.160156 289.269531 216.78125 287.699219 215.359375 286.078125 C 213.992188 284.535156 212.628906 282.992188 211.21875 281.398438 C 199.546875 266.519531 200.78125 251.265625 202.238281 232.960938 C 207.542969 217.328125 217.980469 207.027344 232.160156 198.878906 C 247.929688 191.605469 264.070312 191.605469 279.839844 198.878906 Z M 230.398438 222.71875 C 222.78125 230.832031 220.429688 237.839844 219.359375 248.960938 C 220.53125 262.996094 225.234375 271.769531 235.839844 281.441406 C 246.925781 285.539062 257.132812 285.824219 268.800781 284.160156 C 278.613281 279.519531 282.964844 275.710938 288.960938 266.71875 C 293.71875 253.234375 293.394531 244.460938 288 231.199219 C 281.589844 221.035156 272.425781 216.035156 261.121094 212.480469 C 248.515625 212.480469 240.953125 216.140625 230.398438 222.71875 Z M 209.921875 327.679688 C 199.289062 342.558594 194.183594 353.761719 194.078125 372.320312 C 194.042969 375.21875 194.007812 378.121094 193.96875 381.109375 C 194.101562 389.824219 194.101562 389.824219 199.679688 399.359375 C 236.851562 399.359375 274.023438 399.359375 312.320312 399.359375 C 320.039062 383.917969 320.503906 366.238281 315.589844 349.558594 C 307.699219 332.820312 294.292969 319.464844 277.441406 311.839844 C 252.777344 305.902344 228.351562 309.25 209.921875 327.679688 Z M 209.921875 327.679688 "/>
<path style=" stroke:none;fill-rule:nonzero;fill:rgb(0%,0%,0%);fill-opacity:1;" d="M 356.03125 114.910156 C 366.933594 121.214844 373.636719 131.046875 379.839844 141.761719 C 383.792969 158.359375 382.925781 172.4375 374.441406 187.410156 C 367.164062 197.714844 359.746094 203.859375 347.199219 206.878906 C 343.875 207.117188 343.875 207.117188 340.480469 207.359375 C 340.480469 209.050781 340.480469 210.738281 340.480469 212.480469 C 342.804688 212.164062 345.125 211.847656 347.519531 211.519531 C 364.917969 211.589844 381.699219 221.636719 394.71875 232.519531 C 413.519531 252.453125 419.046875 273.988281 418.308594 300.988281 C 416.863281 313.3125 413.628906 328.769531 404.480469 337.921875 C 393.457031 338.570312 382.402344 338.394531 371.359375 338.398438 C 366.679688 338.445312 366.679688 338.445312 361.90625 338.496094 C 357.441406 338.503906 357.441406 338.503906 352.890625 338.511719 C 350.144531 338.519531 347.398438 338.53125 344.570312 338.542969 C 337.921875 337.921875 337.921875 337.921875 332.800781 332.800781 C 333.644531 328.574219 334.488281 324.351562 335.359375 320 C 353.945312 319.15625 372.53125 318.308594 391.679688 317.441406 C 398.816406 296.035156 398.867188 282.390625 389.960938 261.96875 C 381.148438 246.5 367.246094 238.660156 350.71875 232.960938 C 343.082031 231.015625 335.417969 229.332031 327.679688 227.839844 C 327.570312 223.574219 327.574219 219.304688 327.679688 215.039062 C 328.523438 214.195312 329.371094 213.351562 330.238281 212.480469 C 328.539062 211.859375 326.839844 211.238281 325.089844 210.601562 C 309.273438 204.597656 296.75 199.71875 287.359375 184.960938 C 280.730469 167.71875 280.296875 155.398438 286.890625 138.339844 C 293.566406 123.761719 302.167969 117.773438 316.679688 111.941406 C 330.542969 107.554688 342.859375 109.515625 356.03125 114.910156 Z M 304.640625 143.359375 C 300.179688 152.28125 300.578125 161.789062 302.078125 171.519531 C 306.4375 179.390625 311.839844 185.359375 320 189.441406 C 329.601562 190.785156 338.972656 191.503906 347.789062 187.03125 C 356.050781 180.523438 361.269531 174.097656 363.519531 163.839844 C 363.214844 149.582031 357.625 143.046875 348.160156 133.121094 C 331.175781 124.628906 316.789062 130.605469 304.640625 143.359375 Z M 304.640625 143.359375 "/>
<path style=" stroke:none;fill-rule:nonzero;fill:rgb(0%,0%,0%);fill-opacity:1;" d="M 210.878906 117.121094 C 222.140625 126.769531 231.691406 137.332031 233.910156 152.359375 C 234.335938 169.976562 231.699219 181.070312 220.160156 194.558594 C 209.929688 205.074219 198.097656 208.519531 184.320312 212.480469 C 184.320312 217.546875 184.320312 222.617188 184.320312 227.839844 C 181.757812 228.402344 179.191406 228.960938 176.550781 229.539062 C 154.90625 234.574219 137.941406 239.160156 124.769531 258.078125 C 117.386719 270.929688 114.53125 284.742188 115.199219 299.519531 C 117.734375 308.390625 117.734375 308.390625 120.320312 317.441406 C 138.90625 318.285156 157.492188 319.128906 176.640625 320 C 177.484375 324.222656 178.328125 328.449219 179.199219 332.800781 C 171.140625 340.859375 162.253906 338.675781 151.253906 338.746094 C 148.28125 338.738281 145.304688 338.726562 142.238281 338.71875 C 139.273438 338.761719 136.308594 338.800781 133.253906 338.84375 C 130.414062 338.847656 127.574219 338.847656 124.648438 338.851562 C 120.738281 338.863281 120.738281 338.863281 116.746094 338.875 C 109.128906 337.785156 106.964844 336.28125 102.398438 330.238281 C 92.59375 311.230469 91.789062 289.566406 96.398438 268.980469 C 104.105469 245.007812 116.238281 230.613281 138.558594 219.039062 C 147.835938 214.617188 156.246094 211.539062 166.398438 209.921875 C 164.550781 208.496094 162.703125 207.070312 160.800781 205.601562 C 136.84375 185.902344 136.84375 185.902344 134.730469 169.078125 C 134.402344 152.835938 134.574219 140.28125 144.480469 126.941406 C 162.625 108.523438 188.226562 105.375 210.878906 117.121094 Z M 158.71875 140.800781 C 152.257812 149.726562 152.488281 158.203125 153.601562 168.960938 C 158.789062 178.441406 162.511719 183.433594 171.519531 189.441406 C 182.238281 190.984375 191.832031 190.507812 201.921875 186.558594 C 210.082031 179.359375 214.640625 172.398438 215.378906 161.300781 C 214.714844 150.9375 213.050781 146.609375 206.238281 138.398438 C 196.203125 130.320312 189.894531 129.6875 177.300781 129.828125 C 168.667969 130.921875 164.503906 134.488281 158.71875 140.800781 Z M 158.71875 140.800781 "/>
</g>
</svg>
