<?xml version="1.0" encoding="utf-8"?>
<!-- Svg Vector Icons : http://www.onlinewebfonts.com/icon -->
<!DOCTYPE svg PUBLIC "-//W3C//DTD SVG 1.1//EN" "http://www.w3.org/Graphics/SVG/1.1/DTD/svg11.dtd">
<svg version="1.1" xmlns="http://www.w3.org/2000/svg" xmlns:xlink="http://www.w3.org/1999/xlink" x="0px" y="0px" viewBox="0 0 256 256" enable-background="new 0 0 256 256" xml:space="preserve">
<metadata> Svg Vector Icons : http://www.onlinewebfonts.com/icon </metadata>
<g><g><path fill="#000000" d="M236,184.2c-6.2-6-13.9-11.7-19.3-15.4c-7.3-5.1-14.8-9.7-21.3-13.1c-10.4-5.5-14.9-6.2-17.3-6.2c-4.8,0-9,2.5-12.5,7.5c-2.4,3.5-4.3,7.8-5.8,11.4c-1.5,3.5-3.1,7.1-4.4,8.7l-0.2,0.2l-0.3-0.1c-1.3-0.3-6.7-2-18.2-9.8c-9.3-6.4-19.2-14.4-26.6-21.6c-7.3-7.5-15.4-17.5-21.6-26.6c-7.8-11.6-9.5-16.9-9.8-18.2l-0.1-0.3l0.3-0.2c1.6-1.3,5.7-3.1,8.5-4.3l0.7-0.3c3.7-1.6,7.5-3.3,10.6-5.5c5-3.4,7.5-7.6,7.5-12.5c0-2.4-0.6-6.9-6.2-17.3c-3.3-6.4-8-13.9-13.1-21.2c-3.7-5.3-9.4-13-15.4-19.3c-6.6-6.9-11.7-10-16.3-10c-9.1,0-20.9,11.4-28.9,22.1c-5,6.7-16.6,24-16.6,40.1c0,15.1,10.1,34.8,18.6,48.6c11.4,18.5,27.2,38.5,44.5,56.3l5.7,5.7c17.8,17.3,37.8,33.1,56.3,44.5c13.8,8.5,33.4,18.6,48.6,18.6c16.2,0,33.4-11.6,40.1-16.6c10.7-8,22.1-19.8,22.1-28.9C245.9,195.9,242.9,190.8,236,184.2z M183.7,233.1c-9.3,0-24.6-6.1-41.9-16.7c-17.7-10.9-36.8-26.1-54-42.7l-5.5-5.5c-16.6-17.1-31.8-36.3-42.7-54C29,96.8,22.9,81.6,22.9,72.2c0-8.4,5.1-20.2,13.5-31.7c3.6-4.9,7.8-9.6,11.7-12.9c4.6-3.9,6.9-4.5,7-4.6l0.2-0.1l0.2,0.1c2,0.9,9.9,7.2,22.1,24.8c4.4,6.4,8.5,13.1,11.5,18.8c3.9,7.5,4.5,10.4,4.5,10.9l0,0.2L93.5,78c-0.3,0.5-1.1,1.3-2.9,2.4c-2,1.2-4.6,2.4-7.2,3.5l-0.8,0.4c-3.5,1.5-7.2,3.1-10,5c-4.6,3-6.9,6.8-6.8,11.1c0,2.1,0.1,8.5,12.2,26.2c6.6,9.7,15.2,20.3,23.1,28.4c8,7.8,18.6,16.5,28.5,23.2c17.6,12,24.1,12.2,26.2,12.2c4.4,0,8.1-2.3,11.1-6.9c1.9-2.9,3.5-6.6,4.9-9.8c1.3-2.8,2.5-5.8,3.9-8.1c1.2-2,2-2.7,2.4-3l0.2-0.1l0.2,0c1,0.2,4.1,0.9,10.9,4.5c5.8,3,12.4,7.1,18.8,11.5c17,11.8,23.7,19.6,24.8,22l0.1,0.2l-0.1,0.2c-0.2,0.6-1.1,3-4.6,7c-3.2,3.7-7.8,7.8-12.9,11.7C203.9,228,192.1,233.1,183.7,233.1z"/></g></g>
</svg>