<?xml version="1.0" encoding="UTF-8"?>
<svg version="1.1" xmlns="http://www.w3.org/2000/svg" width="512" height="512">
<path d="M0 0 C0.88429688 0.474375 1.76859375 0.94875 2.6796875 1.4375 C9.1799633 5.26769084 14.57607532 10.07793846 20.0234375 15.234375 C23.63379626 18.63540351 27.48981735 21.71099907 31.3515625 24.8203125 C33.97275119 26.97757399 36.49154281 29.21311 39 31.5 C42.41739372 34.61458668 45.9052235 37.5918662 49.5 40.5 C53.96276213 44.11032442 58.22719533 47.88427929 62.46875 51.75 C65.0884481 54.07862053 67.7751531 56.29562947 70.5 58.5 C74.96276213 62.11032442 79.22719533 65.88427929 83.46875 69.75 C86.0884481 72.07862053 88.7751531 74.29562947 91.5 76.5 C95.96276213 80.11032442 100.22719533 83.88427929 104.46875 87.75 C107.0884481 90.07862053 109.7751531 92.29562947 112.5 94.5 C116.96276213 98.11032442 121.22719533 101.88427929 125.46875 105.75 C128.0884481 108.07862053 130.7751531 110.29562947 133.5 112.5 C137.96276213 116.11032442 142.22719533 119.88427929 146.46875 123.75 C149.0884481 126.07862053 151.7751531 128.29562947 154.5 130.5 C158.96276213 134.11032442 163.22719533 137.88427929 167.46875 141.75 C170.0884481 144.07862053 172.7751531 146.29562947 175.5 148.5 C180.01958577 152.15901584 184.36645521 155.96218185 188.66015625 159.8828125 C190.78046276 161.80135361 192.94226206 163.65339519 195.125 165.5 C205.11168979 174.27618194 213.00872552 184.476142 214.18643057 198.16731036 C214.2586859 200.52697499 214.27150835 202.87931644 214.26069641 205.24006653 C214.26452196 206.13752222 214.26834751 207.03497792 214.27228898 207.95962924 C214.28255993 210.9494651 214.27863807 213.9391068 214.2746582 216.92895508 C214.27900798 219.07974932 214.28419201 221.230542 214.29014587 223.3813324 C214.30351939 229.21200731 214.3041163 235.04261734 214.30158257 240.87330461 C214.30051162 245.74640316 214.30539948 250.61948865 214.310188 255.49258441 C214.32127776 266.99286897 214.32172374 278.49312088 214.31567383 289.9934082 C214.30963542 301.84379533 214.32194297 313.69406369 214.3432439 325.54443055 C214.36087803 335.73067442 214.36685834 345.91688054 214.36360615 356.1031391 C214.36179585 362.18158841 214.36440418 368.259953 214.37832069 374.33838844 C214.39092362 380.05693643 214.3889315 385.77529974 214.37590981 391.49384499 C214.37354976 393.58716902 214.37625812 395.68050615 214.38453293 397.77381516 C214.4592095 418.14094588 214.4592095 418.14094588 211 427 C210.72059224 427.72219129 210.44118448 428.44438257 210.15330982 429.18845844 C205.76455159 439.75586371 195.68587824 448.5112522 185.44116211 453.16149902 C174.56754663 456.97736622 163.70740933 456.58100158 152.3125 456.53125 C150.12019682 456.53395046 147.92789482 456.53783747 145.7355957 456.54284668 C141.15987652 456.54871561 136.58447148 456.54026306 132.00878906 456.52148438 C126.17536912 456.49869678 120.3426856 456.51183388 114.5092926 456.53577423 C109.98794108 456.5503028 105.46676105 456.54559396 100.94540405 456.53526306 C98.79584666 456.53261525 96.64627315 456.53579612 94.49673462 456.54518127 C76.50490254 456.60651727 62.48252663 455.04308153 48.8125 442.25 C36.8809332 429.72423167 35.56288416 416.11258003 35.61987495 399.59905434 C35.62907532 396.68472693 35.61866214 393.77103057 35.60325623 390.85673523 C35.56339005 382.57922181 35.5619571 374.3017635 35.56420898 366.02416992 C35.56426018 360.94093101 35.54505261 355.85803707 35.51487541 350.77489281 C35.5040983 347.91425743 35.51614724 345.05429312 35.52870178 342.19367981 C35.51979438 340.43030138 35.50971895 338.66692834 35.49829102 336.90356445 C35.51290627 335.72430641 35.51290627 335.72430641 35.52781677 334.52122498 C35.45629378 328.96537041 34.13711311 324.63094313 31 320 C25.64118885 315.84692136 20.2467506 315.84542445 13.68652344 315.82299805 C12.85022903 315.81642685 12.01393463 315.80985565 11.15229797 315.80308533 C8.38798934 315.78339465 5.62373494 315.77169905 2.859375 315.76171875 C1.91319557 315.75764322 0.96701614 315.7535677 -0.00783539 315.74936867 C-5.0161263 315.72852579 -10.02438997 315.71421646 -15.03271484 315.70483398 C-20.19534568 315.69377432 -25.35754495 315.65937432 -30.52002335 315.61966228 C-34.49899069 315.59347061 -38.47785559 315.58513987 -42.45690155 315.58155251 C-44.35942245 315.57669304 -46.26193896 315.56509734 -48.16437531 315.54651451 C-50.83290975 315.52206894 -53.50033231 315.52309783 -56.16894531 315.5300293 C-56.94741318 315.51721924 -57.72588104 315.50440918 -58.52793884 315.49121094 C-64.1090959 315.54377741 -68.30932499 316.94757316 -73 320 C-77.28252929 324.5588215 -77.14987919 329.26522729 -77.15771484 335.22827148 C-77.16279556 336.06774826 -77.16787628 336.90722504 -77.17311096 337.7721405 C-77.18381622 339.59729912 -77.19243579 341.42247087 -77.19923019 343.24764824 C-77.21103685 346.14547896 -77.23049838 349.04316183 -77.25234985 351.94093323 C-77.3138774 360.18119302 -77.36783067 368.4214403 -77.40136719 376.66186523 C-77.42243641 381.70347365 -77.45784511 386.74481646 -77.50212479 391.78627205 C-77.51619762 393.69938062 -77.52498732 395.61253623 -77.52817917 397.52569389 C-77.55971729 414.63230333 -79.06427163 429.70019171 -91.3125 442.875 C-99.21861629 450.14295444 -110.31182424 456.08283462 -121.23461914 456.14717102 C-122.49159859 456.15790398 -122.49159859 456.15790398 -123.77397156 456.16885376 C-125.14075798 456.17288712 -125.14075798 456.17288712 -126.53515625 456.17700195 C-127.50157547 456.18357315 -128.46799469 456.19014435 -129.46369934 456.19691467 C-132.66330039 456.216629 -135.86285445 456.22830879 -139.0625 456.23828125 C-140.1581427 456.24235678 -141.2537854 456.2464323 -142.38262939 456.25063133 C-148.1865622 456.27148835 -153.99047142 456.2857893 -159.79443359 456.29516602 C-165.76825078 456.30620407 -171.74169279 456.34057526 -177.71537781 456.38033772 C-182.32587338 456.40658137 -186.9362808 456.41486494 -191.54684448 456.41844749 C-193.74749269 456.42329673 -195.9481374 456.43486282 -198.14871216 456.45348549 C-213.97611528 456.57905616 -225.98147367 455.89408001 -239 446 C-240.546875 444.9171875 -240.546875 444.9171875 -242.125 443.8125 C-246.43122872 440.06847337 -249.40169466 435.01864457 -252 430 C-252.33788292 429.35152351 -252.67576584 428.70304703 -253.02388763 428.03491974 C-257.35885069 418.20137128 -256.5611896 407.79626976 -256.51757812 397.27148438 C-256.52300447 395.07098427 -256.53013 392.87048781 -256.53881836 390.66999817 C-256.55699349 384.71753019 -256.55000807 378.76534073 -256.53730202 372.81286812 C-256.52714427 366.57067259 -256.5365754 360.32850022 -256.54284668 354.08630371 C-256.55057997 342.9350193 -256.53818326 331.78384401 -256.51780933 320.63258117 C-256.4999405 310.54031066 -256.50304529 300.44822423 -256.52148438 290.35595703 C-256.54293395 278.61061291 -256.55083541 266.86537608 -256.53903532 255.12001467 C-256.53281318 248.91192998 -256.53192961 242.70397184 -256.54518127 236.49589539 C-256.55677282 230.65822982 -256.54865341 224.82091043 -256.52560425 218.98328209 C-256.52033484 216.84642294 -256.52180047 214.70953445 -256.53065491 212.57268715 C-256.60827241 191.93132904 -256.60827241 191.93132904 -252 183 C-251.505 181.9790625 -251.01 180.958125 -250.5 179.90625 C-243.8853808 169.29529836 -234.27628464 161.93162173 -224.6484375 154.1796875 C-222.02724881 152.02242601 -219.50845719 149.78689 -217 147.5 C-212.70008209 143.58108748 -208.24080453 139.90829131 -203.71875 136.25 C-201.07852271 134.06498431 -198.5327028 131.80828609 -196 129.5 C-191.70008209 125.58108748 -187.24080453 121.90829131 -182.71875 118.25 C-180.07852271 116.06498431 -177.5327028 113.80828609 -175 111.5 C-170.70008209 107.58108748 -166.24080453 103.90829131 -161.71875 100.25 C-159.07852271 98.06498431 -156.5327028 95.80828609 -154 93.5 C-149.70008209 89.58108748 -145.24080453 85.90829131 -140.71875 82.25 C-138.07852271 80.06498431 -135.5327028 77.80828609 -133 75.5 C-128.70008209 71.58108748 -124.24080453 67.90829131 -119.71875 64.25 C-117.07852271 62.06498431 -114.5327028 59.80828609 -112 57.5 C-107.70008209 53.58108748 -103.24080453 49.90829131 -98.71875 46.25 C-96.07852271 44.06498431 -93.5327028 41.80828609 -91 39.5 C-86.70008209 35.58108748 -82.24080453 31.90829131 -77.71875 28.25 C-75.07852271 26.06498431 -72.5327028 23.80828609 -70 21.5 C-64.82716162 16.79518033 -59.46740025 12.35747689 -54 8 C-53.27683594 7.41992188 -52.55367187 6.83984375 -51.80859375 6.2421875 C-37.51262894 -4.89243871 -16.53021671 -8.92950613 0 0 Z M-39.328125 38.57421875 C-41.98211342 40.98376087 -44.7100929 43.2499478 -47.5 45.5 C-51.0947765 48.4081338 -54.58260628 51.38541332 -58 54.5 C-62.29991791 58.41891252 -66.75919547 62.09170869 -71.28125 65.75 C-73.92147729 67.93501569 -76.4672972 70.19171391 -79 72.5 C-83.29991791 76.41891252 -87.75919547 80.09170869 -92.28125 83.75 C-94.92147729 85.93501569 -97.4672972 88.19171391 -100 90.5 C-104.29991791 94.41891252 -108.75919547 98.09170869 -113.28125 101.75 C-115.92147729 103.93501569 -118.4672972 106.19171391 -121 108.5 C-125.29991791 112.41891252 -129.75919547 116.09170869 -134.28125 119.75 C-136.92147729 121.93501569 -139.4672972 124.19171391 -142 126.5 C-146.29991791 130.41891252 -150.75919547 134.09170869 -155.28125 137.75 C-157.92147729 139.93501569 -160.4672972 142.19171391 -163 144.5 C-167.29991791 148.41891252 -171.75919547 152.09170869 -176.28125 155.75 C-178.92147729 157.93501569 -181.4672972 160.19171391 -184 162.5 C-188.29991791 166.41891252 -192.75919547 170.09170869 -197.28125 173.75 C-200.77069822 176.63781922 -204.10337303 179.67797239 -207.44140625 182.73828125 C-211.0417472 185.92087272 -214.83477655 188.84498755 -218.65234375 191.76171875 C-222.3687165 195.30494934 -224.1261056 198.92729712 -224.38031673 204.04523373 C-224.39801346 205.61696709 -224.39939275 207.18893758 -224.38768005 208.76072693 C-224.39306559 209.63071117 -224.39845113 210.50069541 -224.40399987 211.39704281 C-224.4182821 214.30577427 -224.41117504 217.21405081 -224.40405273 220.12280273 C-224.40975615 222.21082932 -224.4167203 224.29885279 -224.42485046 226.38687134 C-224.44279989 232.0542056 -224.44161012 237.72138519 -224.43590808 243.38873935 C-224.43281888 248.12045695 -224.43890568 252.85214472 -224.44494683 257.58385807 C-224.45899625 268.74644166 -224.4574272 279.90894872 -224.44604492 291.0715332 C-224.43456242 302.58685773 -224.44864077 314.10194939 -224.4754414 325.61724323 C-224.49759305 335.50530654 -224.50423699 345.39329673 -224.49836498 355.2813831 C-224.49499305 361.18649532 -224.49742635 367.09145825 -224.51461601 372.99654961 C-224.53007448 378.54931905 -224.52614153 384.1017433 -224.50731087 389.65449905 C-224.50362201 391.69144817 -224.50674206 393.7284228 -224.51719666 395.76534843 C-224.53038776 398.54806046 -224.51887564 401.32962657 -224.50120544 404.11228943 C-224.51081045 404.91657881 -224.52041546 405.72086819 -224.53031152 406.54952997 C-224.45742873 412.13551396 -223.25240865 415.4224283 -220 420 C-215.04981297 424.18475728 -209.16996593 424.58047874 -202.94116211 424.51757812 C-202.0734166 424.5245874 -201.20567108 424.53159668 -200.31163025 424.53881836 C-197.46653471 424.5563069 -194.62244796 424.54480937 -191.77734375 424.53125 C-189.78772289 424.5339473 -187.79810331 424.5378317 -185.80848694 424.54284668 C-181.64848215 424.54872914 -177.488822 424.54021823 -173.32885742 424.52148438 C-168.00697663 424.49868082 -162.6859022 424.51183492 -157.36405087 424.53577423 C-153.25897688 424.55025335 -149.15409296 424.54561675 -145.04901314 424.53526306 C-143.08708156 424.5326024 -141.12513251 424.53584221 -139.16322136 424.54518127 C-136.41816594 424.55538338 -133.67440294 424.5397956 -130.92944336 424.51757812 C-129.72369659 424.52972351 -129.72369659 424.52972351 -128.49359131 424.54211426 C-122.88887985 424.45842002 -119.61543935 423.21872253 -115 420 C-110.17858156 413.90978724 -109.85410447 409.1477211 -109.87402344 401.59814453 C-109.8721553 400.75198074 -109.87028717 399.90581696 -109.86836243 399.03401184 C-109.86436155 397.19686309 -109.86228388 395.35970937 -109.86190033 393.5225563 C-109.85847207 389.59958833 -109.83708471 385.67678417 -109.81666946 381.75387383 C-109.77876118 374.45633754 -109.74737294 367.1589742 -109.74951172 359.86132812 C-109.7503043 354.77954242 -109.72669886 349.69835505 -109.6876297 344.61672592 C-109.67724625 342.69131036 -109.67558848 340.76582507 -109.68328094 338.84039688 C-109.73907467 323.31552653 -108.27145812 309.78914513 -97 298 C-96.39285156 297.36449219 -95.78570312 296.72898437 -95.16015625 296.07421875 C-85.25450613 286.6142216 -72.65146815 283.68645501 -59.34033203 283.7253418 C-58.42034424 283.72023087 -57.50035645 283.71511993 -56.55249023 283.70985413 C-53.53752986 283.69605302 -50.52280054 283.69690775 -47.5078125 283.69921875 C-45.39468299 283.69532659 -43.28155425 283.69099086 -41.16842651 283.68623352 C-36.74881448 283.67879166 -32.32928237 283.67904781 -27.90966797 283.68432617 C-22.26887526 283.69011775 -16.62841122 283.67318721 -10.98767281 283.6499815 C-6.62598789 283.63519165 -2.26438118 283.6343796 2.09732437 283.63749123 C4.17597225 283.63698065 6.2546248 283.63179277 8.33324814 283.62167931 C25.34147127 283.54907424 41.01158684 284.71827925 54.1171875 296.921875 C59.89531076 303.29938864 63.95152035 310.64850603 66 319 C66.17222076 319.69134537 66.34444153 320.38269073 66.5218811 321.09498596 C67.15081502 324.9163406 67.15265536 328.68934247 67.15771484 332.55053711 C67.16279556 333.3999437 67.16787628 334.24935028 67.17311096 335.12449646 C67.18378709 336.96382057 67.19241801 338.80315744 67.19923019 340.64249992 C67.21105235 343.55564461 67.23051259 346.46864326 67.25234985 349.38172913 C67.31386287 357.66255838 67.36802998 365.9433707 67.40136719 374.22436523 C67.42232408 379.29418908 67.45763115 384.36374303 67.50212479 389.43341255 C67.51627175 391.3626443 67.52500428 393.29192375 67.52817917 395.22120476 C67.53309378 397.92111309 67.55626448 400.62030575 67.58349609 403.32006836 C67.58048996 404.11350647 67.57748383 404.90694458 67.5743866 405.72442627 C67.65638307 411.20516271 68.67503879 415.45101909 72.5 419.64453125 C77.90288058 423.8514617 81.86008732 424.15208629 88.50708008 424.16113281 C89.37570175 424.16609772 90.24432343 424.17106262 91.13926697 424.17617798 C94.01602976 424.19079597 96.8927374 424.19760116 99.76953125 424.203125 C101.76869203 424.20887695 103.7678528 424.21463467 105.76701355 424.22039795 C109.96097063 424.23090704 114.15490855 424.23675025 118.34887695 424.24023438 C123.71903562 424.24571755 129.08894054 424.26974226 134.45901966 424.29820633 C138.58974443 424.3168441 142.72040823 424.32203893 146.85117149 424.32357025 C148.83068923 424.32659495 150.81020594 424.33461731 152.78968239 424.34775543 C155.5615625 424.3648389 158.33282471 424.36292999 161.10473633 424.35644531 C161.92001801 424.3656601 162.73529968 424.37487488 163.57528687 424.3843689 C169.13057091 424.34372415 173.3886371 423.3818607 177.64453125 419.5 C181.81638841 414.14216339 182.14750762 410.25935958 182.14044189 403.66923523 C182.14341302 402.8092758 182.14638414 401.94931637 182.1494453 401.06329757 C182.15814339 398.17068797 182.15964148 395.2781197 182.16113281 392.38549805 C182.16576019 390.31599845 182.17078474 388.2464997 182.17617798 386.17700195 C182.18931143 380.54679133 182.19574874 374.91659264 182.20018864 369.28636909 C182.20311773 365.77044307 182.20722222 362.25452033 182.21169281 358.73859596 C182.22537 347.74271652 182.23503567 336.74684455 182.2388947 325.75095719 C182.24337667 313.04913648 182.26093015 300.34742331 182.2898953 287.64563531 C182.31149633 277.83324578 182.32159813 268.02088656 182.32293582 258.2084735 C182.32398494 252.34528174 182.32991565 246.48219105 182.34775543 240.61902428 C182.36420887 235.10411917 182.36640484 229.58939139 182.35761642 224.07447052 C182.3568446 222.04999886 182.36120786 220.02551778 182.37107468 218.00107002 C182.38375313 215.23773973 182.37793966 212.47504139 182.36749268 209.7117157 C182.37554908 208.91024902 182.38360548 208.10878233 182.39190602 207.28302878 C182.34235358 201.68029268 181.13952156 197.68021587 177.5625 193.19921875 C173.19039508 188.96920724 168.56235821 185.1340946 163.82421875 181.3203125 C161.14206334 179.11671594 158.56373579 176.83956175 156 174.5 C152.58260628 171.38541332 149.0947765 168.4081338 145.5 165.5 C141.03723787 161.88967558 136.77280467 158.11572071 132.53125 154.25 C129.9115519 151.92137947 127.2248469 149.70437053 124.5 147.5 C120.03723787 143.88967558 115.77280467 140.11572071 111.53125 136.25 C108.9115519 133.92137947 106.2248469 131.70437053 103.5 129.5 C99.03723787 125.88967558 94.77280467 122.11572071 90.53125 118.25 C87.9115519 115.92137947 85.2248469 113.70437053 82.5 111.5 C78.03723787 107.88967558 73.77280467 104.11572071 69.53125 100.25 C66.9115519 97.92137947 64.2248469 95.70437053 61.5 93.5 C57.03723787 89.88967558 52.77280467 86.11572071 48.53125 82.25 C45.9115519 79.92137947 43.2248469 77.70437053 40.5 75.5 C36.03723787 71.88967558 31.77280467 68.11572071 27.53125 64.25 C24.9115519 61.92137947 22.2248469 59.70437053 19.5 57.5 C15.9052235 54.5918662 12.41739372 51.61458668 9 48.5 C-5.08930482 34.1932165 -5.08930482 34.1932165 -22.86328125 27.734375 C-29.68015244 28.58181054 -34.53346523 34.13552614 -39.328125 38.57421875 Z " fill="#000000" transform="translate(272,36)"/>
</svg>
